<?xml version="1.0" encoding="UTF-8"?>
<!DOCTYPE svg PUBLIC "-//W3C//DTD SVG 1.1//EN" "http://www.w3.org/Graphics/SVG/1.1/DTD/svg11.dtd">
<!-- Creator: CorelDRAW 2018 (64-Bit) -->
<svg xmlns="http://www.w3.org/2000/svg" xml:space="preserve" width="8.26772in" height="11.6929in" version="1.1" style="shape-rendering:geometricPrecision; text-rendering:geometricPrecision; image-rendering:optimizeQuality; fill-rule:evenodd; clip-rule:evenodd"
viewBox="0 0 8267.72 11692.91"
 xmlns:xlink="http://www.w3.org/1999/xlink">
 <defs>
  <style type="text/css">
   <![CDATA[
    .fil0 {fill:#00A2E9}
    .fil2 {fill:#FEFEFE;fill-rule:nonzero}
    .fil1 {fill:#00A2E9;fill-rule:nonzero}
   ]]>
  </style>
 </defs>
 <g id="Layer_x0020_1">
  <metadata id="CorelCorpID_0Corel-Layer"/>
  <g id="_1815134349360">
   <g>
    <path class="fil0" d="M2056.25 6223.72c-1.59,1.59 -4.78,4.78 -10.63,10.63 -8.5,17 -19.66,37.73 -34.01,62.17 -14.35,23.91 -32.41,43.57 -55.26,57.39 -48.35,31.88 -95.11,58.98 -140.28,81.3 -45.17,22.85 -80.76,40.38 -106.27,51.54 -65.36,22.85 -125.93,50.48 -182.79,83.42 -56.85,32.94 -85.02,73.33 -85.02,121.68 0,20.19 12.76,32.94 38.26,38.79 25.5,5.85 56.85,8.5 93.52,8.5 56.85,0 114.77,-10.63 174.28,-31.88 59.51,-21.26 119.02,-46.23 178.54,-74.39l25.5 -12.75c19.66,-8.5 41.98,-17.54 65.89,-27.63 23.91,-10.09 53.67,-19.13 89.27,-27.63 35.6,-8.5 80.24,-17 133.9,-25.5 53.67,-8.5 119.02,-17 195.54,-25.5 -155.69,116.37 -303.94,213.07 -444.21,290.65 -140.28,77.58 -282.68,116.37 -427.21,116.37 -104.68,0 -190.22,-18.6 -256.65,-55.26 -66.42,-37.19 -99.36,-95.64 -99.36,-175.35 0,-19.66 3.72,-44.1 10.63,-72.26 6.91,-28.69 15.94,-56.85 27.63,-85.55 28.17,-51.01 62.7,-105.21 103.61,-162.06 40.92,-56.85 86.61,-108.93 137.62,-155.69 51.01,-46.76 107.87,-86.08 170.04,-117.43 62.17,-31.35 127.52,-46.76 195.54,-46.76l34.01 0c31.35,-2.66 61.63,0 91.39,8.5 29.76,8.5 60.04,39.85 91.39,94.05l-4.25 25.5 -4.25 13.28c2.66,-3.19 3.72,-2.13 2.13,2.13 -1.59,4.25 -3.72,9.03 -6.38,14.88 0,8.5 -0.53,13.28 -2.13,14.88zm75.66 -31.12c-0.07,2.33 -0.26,4.63 -0.57,6.91 -0.72,5.81 -2.15,11.75 -4.35,17.63 -0.03,0.07 -0.06,0.15 -0.09,0.23l0.09 0.03c-0.39,1.03 -1.33,3.3 -2.74,6.57 -0.13,1.24 -0.28,2.48 -0.45,3.75 -2.39,17.52 -8.89,31.6 -20.41,43.13l-3.75 3.75c-3.58,6.96 -7.36,14.09 -11.32,21.33 -5.7,10.42 -12.15,21.81 -19.4,34.17 -0.1,0.17 -0.2,0.33 -0.3,0.5l0.04 0.02c-9.72,16.2 -20.76,31.02 -33.3,44.2 -13.33,14.01 -28.15,26.15 -44.62,36.11 -0.76,0.46 -1.54,0.9 -2.31,1.32 -24.81,16.27 -48.18,30.74 -70.06,43.43 -24.4,14.14 -48.54,27.11 -72.4,38.92 -27.06,13.69 -48.27,24.33 -61.23,30.64 -16.5,8.03 -32.41,15.46 -48.36,22.43 -1.91,0.83 -3.83,1.56 -5.76,2.2 -30.59,10.73 -59.81,22.44 -87.78,35.2 -27.95,12.76 -55.41,26.95 -82.47,42.63 -20.08,11.63 -34.31,23.47 -42.74,35.53 -1.36,1.95 -2.57,3.96 -3.62,6.01 4.72,0.67 9.58,1.23 14.57,1.67 11.67,1.04 26.82,1.54 45.22,1.54 25.18,0 49.89,-2.22 74.17,-6.67 24.74,-4.52 50.64,-11.63 77.72,-21.31 58.16,-20.77 115.65,-44.86 172.54,-71.78 0.8,-0.37 1.6,-0.73 2.4,-1.07l21.81 -10.9c1.44,-0.72 2.89,-1.38 4.36,-1.98 21.86,-9.45 29.28,-12.54 36.93,-15.71 19.74,-8.2 15.68,-6.34 28.51,-11.76 14.43,-6.09 29.92,-11.65 46.5,-16.75 15.35,-4.73 33.11,-9.47 53.19,-14.26 20.34,-4.85 41.46,-9.37 63.33,-13.54 21.71,-4.13 46.89,-8.48 75.52,-13.01 27.36,-4.33 57.62,-8.66 90.69,-12.97 36.68,-4.78 72.7,-9.14 107.98,-13.06 36.53,-4.02 69.41,22.33 73.44,58.85 2.68,24.3 -8.09,46.97 -26.34,60.63l0.04 0.05c-78.35,58.57 -155.1,112.37 -230.13,161.47 -75.48,49.39 -149.48,94.08 -221.89,134.13 -74.94,41.44 -150.47,72.54 -226.59,93.27 -1.93,0.52 -3.85,0.95 -5.78,1.3 -75.63,20.09 -151.26,30.14 -226.87,30.14 -56.6,0 -108.69,-5.15 -156.22,-15.39 -49.4,-10.63 -93.56,-26.73 -132.46,-48.21 -0.17,-0.09 -0.33,-0.19 -0.5,-0.29l-0.02 0.03c-43.92,-24.59 -77.18,-56.93 -99.85,-96.99 -22.45,-39.67 -33.63,-85.14 -33.63,-136.43 0,-12.64 1.18,-26.76 3.44,-42.17 1.96,-13.34 5.08,-28.65 9.26,-45.72 0.22,-0.92 0.46,-1.82 0.72,-2.72 3.83,-15.62 8.02,-30.5 12.6,-44.74 5.46,-16.93 11.16,-32.72 17.17,-47.46 1.34,-3.31 2.93,-6.46 4.71,-9.43 13.83,-24.91 29.95,-51.8 48.38,-80.62 18.05,-28.24 37.5,-56.88 58.33,-85.82 21.7,-30.16 44.75,-59.13 69.19,-86.83 24.17,-27.39 49.99,-53.75 77.54,-79.01 28.11,-25.76 57.46,-49.23 87.97,-70.3 31.01,-21.41 63.33,-40.63 96.91,-57.55 35.31,-17.81 71.96,-31.21 109.83,-40.27 38.54,-9.21 77.11,-13.78 115.65,-13.78l31.83 0c17.6,-1.3 35.73,-1.13 54.46,0.59 20.04,1.83 39.14,5.32 57.34,10.52 26.19,7.48 51,23.36 74.52,47.6 19.13,19.71 37.83,45.44 56.19,77.18 8.06,13.92 10.52,29.55 8.05,44.27l0.02 0 -4.25 25.5c-0.17,1.05 -0.37,2.09 -0.59,3.11z"/>
    <path id="1" class="fil1" d="M2066.88 6178.56l-4.25 13.28c2.66,-3.19 3.72,-2.13 2.13,2.13 -1.59,4.25 -3.72,9.03 -6.38,14.88 0,8.5 -0.53,13.28 -2.13,14.88 -1.59,1.59 -4.78,4.78 -10.63,10.63 -8.5,17 -19.66,37.73 -34.01,62.17 -14.35,23.91 -32.41,43.57 -55.26,57.39 -48.35,31.88 -95.11,58.98 -140.28,81.3 -45.17,22.85 -80.76,40.38 -106.27,51.54 -65.36,22.85 -125.93,50.48 -182.79,83.42 -56.85,32.94 -85.02,73.33 -85.02,121.68 0,20.19 12.76,32.94 38.26,38.79 25.5,5.85 56.85,8.5 93.52,8.5 56.85,0 114.77,-10.63 174.28,-31.88 59.51,-21.26 119.02,-46.23 178.54,-74.39l25.5 -12.75c19.66,-8.5 41.98,-17.54 65.89,-27.63 23.91,-10.09 53.67,-19.13 89.27,-27.63 35.6,-8.5 80.24,-17 133.9,-25.5 53.67,-8.5 119.02,-17 195.54,-25.5 -155.69,116.37 -303.94,213.07 -444.21,290.65 -140.28,77.58 -282.68,116.37 -427.21,116.37 -104.68,0 -190.22,-18.6 -256.65,-55.26 -66.42,-37.19 -99.36,-95.64 -99.36,-175.35 0,-19.66 3.72,-44.1 10.63,-72.26 6.91,-28.69 15.94,-56.85 27.63,-85.55 28.17,-51.01 62.7,-105.21 103.61,-162.06 40.92,-56.85 86.61,-108.93 137.62,-155.69 51.01,-46.76 107.87,-86.08 170.04,-117.43 62.17,-31.35 127.52,-46.76 195.54,-46.76l34.01 0c31.35,-2.66 61.63,0 91.39,8.5 29.76,8.5 60.04,39.85 91.39,94.05l-4.25 25.5z"/>
   </g>
   <g>
    <path class="fil0" d="M2888.36 6025.28c24.78,0 50.78,2.56 78.06,7.68 23.28,4.37 47.17,10.69 71.7,18.93 55.87,-82.72 112.45,-165.09 169.89,-247.17 68.93,-98.51 135.81,-192.03 200.57,-280.26 65.61,-89.41 133.09,-177.96 202.48,-265.78 69.07,-87.41 137.21,-170.46 204.48,-249.3 2.18,-2.55 4.52,-4.89 6.98,-7.03 3.7,-5.26 7.25,-10.04 10.66,-14.33 9.7,-12.21 19.41,-21.76 29.39,-28.61 1.02,-0.7 2.05,-1.35 3.09,-1.99 6.23,-4.06 12.78,-7.74 19.79,-11.2 7.96,-3.93 15.7,-7.36 23.62,-10.58 1.2,-0.48 2.4,-0.93 3.61,-1.34l0.19 -0.08c6.69,-4.68 14.27,-8.17 22.44,-10.15l104.67 -36.24c34.43,-11.86 71.93,6.24 84.13,40.45l0.25 -0.09 16.73 46.84 0.15 0.16c4.59,5.07 8.78,9.89 12.31,14.23 0.59,0.73 1.09,1.34 1.5,1.83 28.83,17.09 40.72,53.53 26.48,84.7 -2.04,4.46 -4.51,8.58 -7.34,12.35l-185.02 256.51 0.12 0.08c-91.67,135.81 -169.34,250.92 -197.13,292.25 -66.28,98.56 -133.11,198.2 -200.32,298.89 -61.56,92.22 -127.3,191.77 -197.54,299.23 -71.61,109.54 -135.27,207.89 -190.63,294.59 -0.14,0.22 -0.29,0.44 -0.44,0.67l0.18 0.11c-23.59,36.04 -44.78,72.48 -63.63,109.32 -19.05,37.24 -36.84,76.98 -53.39,119.14 -0.03,0.07 -0.06,0.15 -0.09,0.23l0.09 0.04c-15.39,38.95 -26.93,80.06 -34.61,123.27 -7.8,43.91 -11.71,90.31 -11.71,139.18 0,4.24 0.02,7.96 0.07,11.18l82.93 51.33c30.24,18.67 40.26,57.68 23.32,88.48l0.12 0.06c-15.57,28.2 -30.11,51.12 -43.52,68.72 -17.51,22.98 -35.29,38.97 -53.14,47.89 -13.91,6.95 -28.37,12.05 -43.45,15.29 -14.74,3.17 -29.98,4.75 -45.75,4.75 -34.45,0 -67.66,-5.89 -99.44,-17.74 -31.57,-11.78 -60.54,-29.02 -86.72,-51.8 -1.19,-1.03 -2.32,-2.09 -3.41,-3.19 -26.94,-24.17 -47.31,-53.96 -61.01,-89.28 -13.39,-34.52 -20.13,-73.44 -20.13,-116.67 0,-34.15 1.9,-69.03 5.77,-104.8 3.84,-35.53 9.51,-70.43 17.05,-104.8 0.17,-0.8 0.36,-1.58 0.56,-2.37 3.05,-14.24 6.24,-28.6 9.57,-43.06 -28.19,16.93 -57.09,33.17 -86.73,48.74 -46.01,24.32 -92.29,42.59 -138.68,54.85 -47.62,12.59 -94.85,18.85 -141.52,18.85 -65.94,0 -117.55,-18.04 -154.72,-54.11 -37.61,-36.5 -56.48,-87.46 -56.48,-152.83 0,-23.7 2.15,-46.98 6.55,-69.95 4.31,-22.54 11.01,-44.63 20.17,-66.35 0.03,-0.07 0.06,-0.15 0.09,-0.22l-0.09 -0.04c13.93,-32.5 30.27,-64.54 48.87,-96.04 18.3,-31 39.48,-62.44 63.35,-94.17 0.11,-0.15 0.23,-0.3 0.35,-0.45l-0.09 -0.07c23.54,-30.92 49.06,-60.56 76.61,-88.82 26.9,-27.59 56.3,-54.22 88.25,-79.8l-0.1 -0.13c31.59,-25.5 64.16,-48.36 97.55,-68.46 33.19,-19.98 68.36,-37.87 105.37,-53.56 37.5,-15.77 76.02,-27.71 115.64,-35.72 40.26,-8.14 80.61,-12.26 121.09,-12.26zm-63.76 612.9c0,-0.69 0,-0.69 0,0 0,0 0,0 0,0zm0 0c0,1.59 1.06,-3.72 4.25,-14.88 -65.36,51.01 -139.75,98.3 -223.7,142.41 -83.42,44.1 -166.84,65.89 -249.2,65.89 -96.17,0 -144.53,-46.76 -144.53,-140.28 0,-39.85 6.91,-76.52 21.25,-110.52 25.51,-59.51 60.57,-118.49 104.15,-176.41 44.1,-57.92 95.11,-110.52 153.56,-157.28 57.92,-46.76 120.62,-84.49 187.04,-112.65 66.95,-28.16 137.09,-42.51 210.95,-42.51 42.51,0 87.67,8.5 136.02,25.5l21.26 8.5 17 8.5c133.37,-198.73 266.21,-388.95 399.58,-570.68 133.37,-181.72 267.8,-351.76 403.83,-511.17l0 4.25c14.35,-22.31 25.51,-36.67 34.01,-42.51 8.5,-5.85 19.66,-11.16 34.01,-17l21.25 -8.5 -4.25 0 110.52 -38.26 21.26 59.51c5.84,5.85 12.22,12.75 19.13,21.26 6.91,8.5 13.29,14.35 19.13,17l-187.04 259.3c-130.19,192.88 -263.02,390.02 -397.46,591.4 -134.43,201.38 -264.08,399.58 -388.95,595.12 -48.35,73.86 -89.27,154.09 -123.28,240.7 -34,86.08 -51.01,181.72 -51.01,286.93 0,25.5 1.59,40.91 4.25,46.76 2.65,5.31 10.09,11.16 21.25,17l89.27 55.26c-28.16,51.01 -51.01,80.76 -68.01,89.27 -17,8.5 -36.67,12.75 -59.51,12.75 -53.67,0 -101.49,-17.54 -142.41,-53.13 -40.91,-35.07 -61.64,-88.21 -61.64,-158.88 0,-65.35 6.91,-130.18 21.26,-195.54 13.81,-64.82 29.76,-128.59 46.76,-190.76 0,-3.34 0,-5.47 0,-6.38z"/>
    <path id="1" class="fil1" d="M2888.36 6091.94c42.51,0 87.67,8.5 136.02,25.5l21.26 8.5 17 8.5c133.37,-198.73 266.21,-388.95 399.58,-570.68 133.37,-181.72 267.8,-351.76 403.83,-511.17l0 4.25c14.35,-22.31 25.51,-36.67 34.01,-42.51 8.5,-5.85 19.66,-11.16 34.01,-17l21.25 -8.5 -4.25 0 110.52 -38.26 21.26 59.51c5.84,5.85 12.22,12.75 19.13,21.26 6.91,8.5 13.29,14.35 19.13,17l-187.04 259.3c-130.19,192.88 -263.02,390.02 -397.46,591.4 -134.43,201.38 -264.08,399.58 -388.95,595.12 -48.35,73.86 -89.27,154.09 -123.28,240.7 -34,86.08 -51.01,181.72 -51.01,286.93 0,25.5 1.59,40.91 4.25,46.76 2.65,5.31 10.09,11.16 21.25,17l89.27 55.26c-28.16,51.01 -51.01,80.76 -68.01,89.27 -17,8.5 -36.67,12.75 -59.51,12.75 -53.67,0 -101.49,-17.54 -142.41,-53.13 -40.91,-35.07 -61.64,-88.21 -61.64,-158.88 0,-65.35 6.91,-130.18 21.26,-195.54 13.81,-64.82 29.76,-128.59 46.76,-190.76 0,-5.85 0,-7.97 0,-6.38 0,1.59 1.06,-3.72 4.25,-14.88 -65.36,51.01 -139.75,98.3 -223.7,142.41 -83.42,44.1 -166.84,65.89 -249.2,65.89 -96.17,0 -144.53,-46.76 -144.53,-140.28 0,-39.85 6.91,-76.52 21.25,-110.52 25.51,-59.51 60.57,-118.49 104.15,-176.41 44.1,-57.92 95.11,-110.52 153.56,-157.28 57.92,-46.76 120.62,-84.49 187.04,-112.65 66.95,-28.16 137.09,-42.51 210.95,-42.51z"/>
   </g>
   <g>
    <path class="fil0" d="M2847.48 6250.67c26.11,-6.1 52.65,-9.95 79.74,-11.52l0 0.02c19.95,-1.08 40.17,6.8 54.17,23.16 23.87,27.9 20.61,69.87 -7.29,93.75 -13.01,11.2 -26.02,21.98 -38.81,32.04 -11.85,9.32 -25.43,19.53 -40.98,30.7 -1.3,1.06 -2.65,2.08 -4.06,3.05 -10.28,7.15 -23.63,16.22 -39.3,26.71 -4.34,2.91 -8.47,5.63 -12.37,8.18 -3.9,4.94 -8.56,9.4 -13.97,13.2l-289.59 203.51 -0.02 -0.02c-17.39,12.21 -40.31,15.89 -61.7,7.84 -34.37,-12.94 -51.74,-51.3 -38.8,-85.68 8.32,-22.09 19.41,-44.26 33.16,-66.45 13.36,-21.57 28.91,-42.68 46.57,-63.33 17.04,-19.93 35,-39.04 53.91,-57.23 19.6,-18.85 39.56,-36.24 59.87,-52.04l0.07 0.09c0.15,-0.12 0.3,-0.24 0.45,-0.35 22.06,-16.85 44.87,-32.11 68.3,-45.52 21.8,-12.46 44.88,-23.74 69.23,-33.67 1.06,-0.49 2.14,-0.96 3.24,-1.41 25.96,-10.56 51.98,-18.91 78.18,-25.04zm83.38 54.88c-45.7,2.65 -90.86,13.28 -136.56,31.88 -45.17,18.07 -87.14,42.51 -125.4,71.74 -38.26,29.76 -72.8,63.23 -104.15,99.89 -31.35,36.67 -54.2,73.33 -68.01,109.99l289.59 -203.51 0 -4.25c13.81,-8.5 36.13,-23.38 65.89,-44.11 29.76,-21.25 55.79,-41.98 78.64,-61.63z"/>
    <path id="1" class="fil2" d="M2930.87 6305.55c-45.7,2.65 -90.86,13.28 -136.56,31.88 -45.17,18.07 -87.14,42.51 -125.4,71.74 -38.26,29.76 -72.8,63.23 -104.15,99.89 -31.35,36.67 -54.2,73.33 -68.01,109.99l289.59 -203.51 0 -4.25c13.81,-8.5 36.13,-23.38 65.89,-44.11 29.76,-21.25 55.79,-41.98 78.64,-61.63z"/>
   </g>
   <g>
    <path class="fil0" d="M1798.83 6150.54c33.89,-11.27 68.34,-16.86 103.33,-16.86 8.74,0 19.64,1.03 32.65,3.2 10.99,1.83 22.64,4.29 34.76,7.39l-0.02 0.09c14.87,3.77 28.52,12.67 38.04,26.21 21.14,30.06 13.91,71.57 -16.15,92.7 -21.93,15.42 -46.25,31.98 -73.62,50 -27.28,17.96 -51.66,33.47 -72.69,46.13 -24.6,14.82 -53.16,29.45 -85.66,43.89 -30.06,13.36 -61.97,25.78 -95.73,37.24 -15.51,6.33 -33.4,6.85 -50.15,0.07 -34.08,-13.81 -50.52,-52.63 -36.72,-86.72 12.45,-30.61 29.7,-58.96 51.59,-85.19 20.75,-24.87 45.96,-47.86 75.46,-69.11 30.11,-21.69 61.75,-38.02 94.88,-49.03zm-160.22 228.34c68.02,-22.85 125.4,-48.35 172.16,-76.52 46.76,-28.16 94.05,-59.51 142.4,-93.52 -22.85,-5.85 -39.85,-8.5 -51.01,-8.5 -56.86,0 -109.99,17.53 -159.41,53.13 -49.41,35.6 -84.48,77.05 -104.15,125.4z"/>
    <path id="1" class="fil2" d="M1902.16 6200.34c-56.86,0 -109.99,17.53 -159.41,53.13 -49.41,35.6 -84.48,77.05 -104.15,125.4 68.02,-22.85 125.4,-48.35 172.16,-76.52 46.76,-28.16 94.05,-59.51 142.4,-93.52 -22.85,-5.85 -39.85,-8.5 -51.01,-8.5z"/>
   </g>
   <g>
    <path class="fil0" d="M6043.55 6223.72c-1.59,1.59 -4.78,4.78 -10.63,10.63 -8.5,17 -19.66,37.73 -34.01,62.17 -14.35,23.91 -32.41,43.57 -55.26,57.39 -48.35,31.88 -95.11,58.98 -140.28,81.3 -45.17,22.85 -80.76,40.38 -106.27,51.54 -65.36,22.85 -125.93,50.48 -182.79,83.42 -56.85,32.94 -85.02,73.33 -85.02,121.68 0,20.19 12.76,32.94 38.26,38.79 25.5,5.85 56.85,8.5 93.52,8.5 56.85,0 114.77,-10.63 174.28,-31.88 59.51,-21.26 119.02,-46.23 178.54,-74.39l25.5 -12.75c19.66,-8.5 41.98,-17.54 65.89,-27.63 23.91,-10.09 53.67,-19.13 89.27,-27.63 35.6,-8.5 80.24,-17 133.9,-25.5 53.67,-8.5 119.02,-17 195.54,-25.5 -155.69,116.37 -303.94,213.07 -444.21,290.65 -140.28,77.58 -282.68,116.37 -427.21,116.37 -104.68,0 -190.22,-18.6 -256.65,-55.26 -66.42,-37.19 -99.36,-95.64 -99.36,-175.35 0,-19.66 3.72,-44.1 10.63,-72.26 6.91,-28.69 15.94,-56.85 27.63,-85.55 28.17,-51.01 62.7,-105.21 103.61,-162.06 40.92,-56.85 86.61,-108.93 137.62,-155.69 51.01,-46.76 107.87,-86.08 170.04,-117.43 62.17,-31.35 127.52,-46.76 195.54,-46.76l34.01 0c31.35,-2.66 61.63,0 91.39,8.5 29.76,8.5 60.04,39.85 91.39,94.05l-4.25 25.5 -4.25 13.28c2.66,-3.19 3.72,-2.13 2.13,2.13 -1.59,4.25 -3.72,9.03 -6.38,14.88 0,8.5 -0.53,13.28 -2.13,14.88zm75.66 -31.12c-0.07,2.28 -0.25,4.53 -0.54,6.76 -0.71,5.86 -2.15,11.85 -4.37,17.78 -0.74,1.96 -1.66,4.25 -2.74,6.8 -0.13,1.25 -0.28,2.5 -0.46,3.78 -2.33,17.29 -8.85,31.3 -20.54,43l0.13 0.13 -3.75 3.75c-3.58,6.96 -7.36,14.09 -11.32,21.33 -5.7,10.42 -12.15,21.81 -19.4,34.17 -0.1,0.17 -0.2,0.33 -0.3,0.5l0.04 0.02c-9.72,16.2 -20.76,31.02 -33.3,44.2 -13.33,14.01 -28.15,26.15 -44.62,36.11 -0.76,0.46 -1.54,0.9 -2.31,1.32 -24.81,16.27 -48.18,30.74 -70.06,43.43 -24.4,14.14 -48.54,27.11 -72.4,38.92 -27.02,13.67 -48.27,24.33 -61.23,30.64 -16.5,8.03 -32.41,15.46 -48.36,22.43 -1.91,0.83 -3.83,1.56 -5.76,2.2 -30.59,10.73 -59.82,22.45 -87.78,35.21 -27.95,12.75 -55.41,26.95 -82.47,42.63 -20.07,11.63 -34.31,23.47 -42.74,35.53 -1.37,1.95 -2.57,3.96 -3.62,6.01 4.72,0.67 9.58,1.23 14.57,1.67 11.67,1.04 26.83,1.54 45.22,1.54 25.18,0 49.89,-2.22 74.17,-6.67 24.74,-4.52 50.64,-11.63 77.72,-21.31 58.16,-20.77 115.65,-44.86 172.54,-71.78 0.8,-0.37 1.6,-0.73 2.4,-1.07l21.81 -10.9c1.44,-0.72 2.9,-1.38 4.37,-1.99 21.86,-9.45 29.27,-12.53 36.92,-15.71 19.75,-8.2 15.69,-6.35 28.51,-11.76 14.44,-6.09 29.92,-11.65 46.5,-16.75 15.35,-4.73 33.12,-9.47 53.19,-14.26 20.34,-4.85 41.46,-9.37 63.33,-13.54 21.71,-4.13 46.9,-8.48 75.52,-13.01 27.36,-4.33 57.62,-8.66 90.69,-12.97 36.68,-4.78 72.7,-9.14 107.98,-13.06 36.53,-4.02 69.41,22.33 73.44,58.85 2.68,24.3 -8.09,46.97 -26.34,60.63l0.04 0.05c-78.35,58.57 -155.1,112.37 -230.13,161.47 -75.48,49.39 -149.48,94.08 -221.89,134.13 -74.93,41.44 -150.48,72.54 -226.59,93.27 -1.93,0.52 -3.85,0.95 -5.78,1.3 -75.63,20.09 -151.26,30.14 -226.87,30.14 -56.6,0 -108.69,-5.15 -156.22,-15.39 -49.4,-10.63 -93.56,-26.73 -132.46,-48.21 -0.17,-0.09 -0.33,-0.19 -0.5,-0.29l-0.02 0.03c-43.92,-24.59 -77.18,-56.93 -99.85,-96.99 -22.45,-39.67 -33.63,-85.14 -33.63,-136.43 0,-12.64 1.18,-26.76 3.44,-42.17 1.96,-13.34 5.08,-28.65 9.26,-45.72 0.22,-0.93 0.47,-1.83 0.73,-2.74 3.83,-15.61 8.01,-30.49 12.6,-44.72 5.46,-16.93 11.17,-32.71 17.17,-47.46 1.34,-3.31 2.93,-6.46 4.71,-9.43 13.83,-24.91 29.95,-51.8 48.38,-80.62 18.05,-28.24 37.5,-56.88 58.33,-85.82 21.7,-30.15 44.75,-59.13 69.19,-86.83 24.17,-27.39 49.99,-53.75 77.54,-79.01 28.11,-25.76 57.46,-49.23 87.97,-70.3 31.01,-21.41 63.33,-40.63 96.91,-57.55 35.31,-17.81 71.96,-31.21 109.83,-40.27 38.54,-9.21 77.11,-13.78 115.65,-13.78l31.83 0c17.61,-1.3 35.73,-1.13 54.46,0.59 20.04,1.83 39.14,5.32 57.34,10.52 26.2,7.48 51,23.35 74.53,47.6 19.13,19.71 37.83,45.44 56.19,77.18 8.06,13.92 10.52,29.55 8.05,44.27l0.02 0 -4.25 25.5c-0.17,1.05 -0.37,2.09 -0.59,3.11z"/>
    <path id="1" class="fil1" d="M6054.18 6178.56l-4.25 13.28c2.66,-3.19 3.72,-2.13 2.13,2.13 -1.59,4.25 -3.72,9.03 -6.38,14.88 0,8.5 -0.53,13.28 -2.13,14.88 -1.59,1.59 -4.78,4.78 -10.63,10.63 -8.5,17 -19.66,37.73 -34.01,62.17 -14.35,23.91 -32.41,43.57 -55.26,57.39 -48.35,31.88 -95.11,58.98 -140.28,81.3 -45.17,22.85 -80.76,40.38 -106.27,51.54 -65.36,22.85 -125.93,50.48 -182.79,83.42 -56.85,32.94 -85.02,73.33 -85.02,121.68 0,20.19 12.76,32.94 38.26,38.79 25.5,5.85 56.85,8.5 93.52,8.5 56.85,0 114.77,-10.63 174.28,-31.88 59.51,-21.26 119.02,-46.23 178.54,-74.39l25.5 -12.75c19.66,-8.5 41.98,-17.54 65.89,-27.63 23.91,-10.09 53.67,-19.13 89.27,-27.63 35.6,-8.5 80.24,-17 133.9,-25.5 53.67,-8.5 119.02,-17 195.54,-25.5 -155.69,116.37 -303.94,213.07 -444.21,290.65 -140.28,77.58 -282.68,116.37 -427.21,116.37 -104.68,0 -190.22,-18.6 -256.65,-55.26 -66.42,-37.19 -99.36,-95.64 -99.36,-175.35 0,-19.66 3.72,-44.1 10.63,-72.26 6.91,-28.69 15.94,-56.85 27.63,-85.55 28.17,-51.01 62.7,-105.21 103.61,-162.06 40.92,-56.85 86.61,-108.93 137.62,-155.69 51.01,-46.76 107.87,-86.08 170.04,-117.43 62.17,-31.35 127.52,-46.76 195.54,-46.76l34.01 0c31.35,-2.66 61.63,0 91.39,8.5 29.76,8.5 60.04,39.85 91.39,94.05l-4.25 25.5z"/>
   </g>
   <g>
    <path class="fil0" d="M7759.83 6025.28c11.51,0 23.91,0.94 37.22,2.91 11.1,1.64 23.62,4.34 37.62,8.19 6.83,1.88 25.98,6.72 45.65,11.68 13.39,3.38 9.1,2.24 13.55,3.37 4.86,0.57 9.73,1.53 14.67,2.83 1.38,0.36 2.74,0.77 4.07,1.22 4.27,1.28 8.14,2.68 11.78,4.21 11.11,1.2 21.4,5.14 30.19,11.12l24.45 -31.97c19.62,-25.7 54.31,-33.11 82.26,-19.31l187.67 79.24c33.8,14.24 49.65,53.18 35.42,86.98 -1.63,3.87 -3.59,7.5 -5.82,10.88l0.09 0.06c-7.11,10.67 -15.63,23.19 -25.16,37.04 -8.49,12.34 -16.06,23.17 -22.9,32.8 -1.27,1.78 -2.61,3.49 -4.02,5.11l0.12 0.1c-6.37,7.31 -11.54,13.88 -15.76,19.83 -0.7,0.98 -1.42,1.93 -2.15,2.86 -3.31,4.91 -7.09,10.99 -11.19,17.89 -3.85,6.49 -7.41,12.67 -10.48,18.14 -2.92,5.2 -5.05,9.19 -6.3,11.7 -1.22,2.44 -2.56,4.77 -4.02,6.99 -13.28,22.93 -24.91,44.39 -34.89,64.34 -10.7,21.41 -20.51,42.92 -29.4,64.52 -7.39,17.96 -12.98,36.66 -16.81,55.99 -3.76,19.02 -5.61,38.54 -5.61,58.49 0,49.07 24.54,73.61 73.61,73.61l7.26 -1.19c8.7,-1.45 18.7,-3.31 29.72,-5.59l-0.04 -0.15c45,-9.74 85.63,-19.2 122,-28.37 39.36,-9.93 72.69,-19.08 100.21,-27.45 28.54,-8.68 56.34,-18.26 83.52,-28.79 26.13,-10.12 51.72,-21.25 76.88,-33.45 25.26,-12.25 50.54,-25.51 75.86,-39.83 1.19,-0.68 2.4,-1.31 3.61,-1.9 22.96,-13.08 47.94,-28.31 75.02,-45.76 25.18,-16.22 52.91,-34 83.12,-53.36 36.07,-23.12 75.71,-48.53 118.8,-76.29 1.47,-0.94 2.96,-1.82 4.47,-2.63l39.86 -23.92c31.5,-18.84 72.31,-8.58 91.15,22.92 1.29,2.16 2.44,4.36 3.46,6.59l0.19 -0.08c0.12,0.27 0.41,0.74 0.84,1.38 1.65,2.45 4.51,6.33 8.35,11.37 2.79,3.65 9.62,11.57 20.32,23.59 12.78,14.35 27.26,30.28 43.78,48.24 24.52,26.65 23.17,67.93 -2.76,92.93 -37.6,38.89 -74.66,75.26 -111.2,109.01 -37.29,34.44 -74.68,66.74 -112.25,96.85 -38.16,30.58 -77.5,58.75 -117.93,84.35 -40.61,25.71 -81.49,48.43 -122.51,67.97 -1.14,0.54 -2.28,1.05 -3.44,1.52 -40.7,19.48 -82.94,36.52 -126.63,51.11 -44.34,14.81 -90.37,27.05 -137.98,36.7l0.02 0.1c-46.64,9.72 -96.46,16.98 -149.43,21.83 -53.74,4.93 -108.33,7.36 -163.8,7.36 -110.11,0 -199.09,-29.52 -266.92,-88.54 -44.57,-38.78 -78.69,-89.35 -102.37,-151.68 -18.95,13.35 -38.38,26.78 -58.26,40.26 -46.17,31.31 -90.47,59.92 -132.94,85.93 -0.89,0.54 -1.78,1.06 -2.68,1.55 -45.56,27.99 -87.51,49.04 -125.87,63.22 -42.92,15.87 -82.44,23.76 -118.63,23.76 -16.7,0 -34.07,-2.46 -52.12,-7.39 -16.52,-4.5 -32.95,-11.11 -49.27,-19.81 -15.11,-8.06 -29.4,-16.89 -42.61,-26.6 -13.59,-9.99 -26.66,-21.22 -39.04,-33.87l-0.12 0.12c-11.31,-11.31 -22.42,-24.19 -33.24,-38.67 -0.03,-0.04 -0.06,-0.09 -0.09,-0.13l-0.17 0.13c-9.52,-12.72 -18.49,-26.91 -26.84,-42.57 -8.83,-16.56 -15.52,-33.72 -20.06,-51.38 -4.76,-18.5 -7.14,-36.63 -7.14,-54.26 0,-21.2 3.39,-43.77 10.07,-67.53 5.95,-21.18 14.93,-43.76 26.82,-67.59l-0.11 -0.05c10.5,-21.28 21.61,-41.59 33.29,-61.01 10.54,-17.53 21.81,-34.57 33.77,-51.19 34.39,-56.39 72.15,-108.38 113.41,-155.99 41.8,-48.22 86.87,-91.61 135.32,-130.14 1.38,-1.09 2.78,-2.13 4.22,-3.09 50.76,-39.33 107.49,-69 170.23,-88.94 63.75,-20.25 132.74,-30.42 207.02,-30.42zm0 66.67c17,0 36.13,2.66 57.39,8.5 21.26,5.85 43.04,11.16 65.89,17 5.84,0 11.16,1.59 17,4.25 5.85,2.66 11.16,4.25 17,4.25 5.85,5.84 11.16,8.5 17,8.5l42.51 17 55.26 -72.26 191.29 80.76c-17,25.51 -32.41,47.82 -46.76,68.02 -14.35,16.47 -26.04,33.48 -36.13,50.48 -10.09,17 -16.47,28.7 -19.13,34.01 -28.16,48.35 -51.54,95.11 -70.14,140.28 -18.59,45.17 -27.63,91.93 -27.63,139.74 0,93.52 46.76,140.28 140.28,140.28 5.84,0 22.85,-2.66 51.01,-8.5 90.86,-19.66 166.31,-38.79 227.42,-57.39 61.11,-18.59 117.43,-40.38 170.04,-65.89 52.6,-25.5 106.27,-55.79 161.53,-91.39 55.26,-35.6 122.74,-78.64 201.92,-129.65l42.51 -25.51c2.66,5.85 8.5,14.35 17,25.51 8.5,11.16 31.35,36.66 68.01,76.52 -73.86,76.51 -146.65,144 -218.92,201.91 -72.26,57.92 -148.25,106.27 -227.42,144 -79.17,38.26 -163.66,66.42 -252.93,84.49 -89.27,18.6 -189.17,27.63 -299.69,27.63 -187.04,0 -297.56,-96.18 -331.57,-288.53 0,3.19 -1.59,5.85 -4.25,8.5 -87.67,65.35 -174.28,123.8 -259.3,175.88 -85.02,52.6 -155.69,78.64 -212.54,78.64 -22.85,0 -46.23,-6.38 -70.14,-19.13 -23.91,-12.75 -46.22,-28.69 -65.89,-48.89 -19.66,-19.66 -36.13,-41.44 -48.89,-65.35 -12.75,-23.91 -19.13,-48.89 -19.13,-74.39 0,-30.82 10.1,-66.42 29.76,-105.74 19.66,-39.85 40.92,-74.92 63.76,-106.27 65.36,-107.33 142.94,-197.13 233.8,-269.4 90.86,-71.74 204.04,-107.87 340.07,-107.87zm167.48 -30.98c0.05,0.02 0.09,0.04 0.14,0.06 0.07,0.03 0.14,0.07 0.21,0.1l0.04 -0.09c-0.06,-0 -0.2,-0.03 -0.39,-0.07z"/>
    <path id="1" class="fil1" d="M7759.83 6091.94c17,0 36.13,2.66 57.39,8.5 21.26,5.85 43.04,11.16 65.89,17 5.84,0 11.16,1.59 17,4.25 5.85,2.66 11.16,4.25 17,4.25 5.85,5.84 11.16,8.5 17,8.5l42.51 17 55.26 -72.26 191.29 80.76c-17,25.51 -32.41,47.82 -46.76,68.02 -14.35,16.47 -26.04,33.48 -36.13,50.48 -10.09,17 -16.47,28.7 -19.13,34.01 -28.16,48.35 -51.54,95.11 -70.14,140.28 -18.59,45.17 -27.63,91.93 -27.63,139.74 0,93.52 46.76,140.28 140.28,140.28 5.84,0 22.85,-2.66 51.01,-8.5 90.86,-19.66 166.31,-38.79 227.42,-57.39 61.11,-18.59 117.43,-40.38 170.04,-65.89 52.6,-25.5 106.27,-55.79 161.53,-91.39 55.26,-35.6 122.74,-78.64 201.92,-129.65l42.51 -25.51c2.66,5.85 8.5,14.35 17,25.51 8.5,11.16 31.35,36.66 68.01,76.52 -73.86,76.51 -146.65,144 -218.92,201.91 -72.26,57.92 -148.25,106.27 -227.42,144 -79.17,38.26 -163.66,66.42 -252.93,84.49 -89.27,18.6 -189.17,27.63 -299.69,27.63 -187.04,0 -297.56,-96.18 -331.57,-288.53 0,3.19 -1.59,5.85 -4.25,8.5 -87.67,65.35 -174.28,123.8 -259.3,175.88 -85.02,52.6 -155.69,78.64 -212.54,78.64 -22.85,0 -46.23,-6.38 -70.14,-19.13 -23.91,-12.75 -46.22,-28.69 -65.89,-48.89 -19.66,-19.66 -36.13,-41.44 -48.89,-65.35 -12.75,-23.91 -19.13,-48.89 -19.13,-74.39 0,-30.82 10.1,-66.42 29.76,-105.74 19.66,-39.85 40.92,-74.92 63.76,-106.27 65.36,-107.33 142.94,-197.13 233.8,-269.4 90.86,-71.74 204.04,-107.87 340.07,-107.87z"/>
   </g>
   <g>
    <path class="fil0" d="M7692.68 6201.11c26.81,-6.7 53.45,-10.05 79.91,-10.05 20.67,0 40.83,2.42 60.59,7.33 20.21,5.03 39.19,12.5 56.98,22.52l-0.08 0.15c4.15,2.33 8.11,5.14 11.8,8.44 27.32,24.45 29.65,66.43 5.2,93.75 -38.71,43.17 -77.12,82.86 -115.3,119.21 -39.14,37.27 -78.48,71.65 -118.07,103.27 -39.3,31.39 -83.33,62.59 -132.12,93.7 -47.72,30.44 -98.45,59.81 -152.25,88.24 -14.44,8.35 -32.02,11.33 -49.48,6.96 -35.67,-8.91 -57.35,-45.06 -48.44,-80.73 7.83,-31.05 17.91,-61.59 30.29,-91.61 12.49,-30.28 26.85,-58.97 43.15,-86.03 15.89,-26.39 33.38,-51.95 52.46,-76.59 19.31,-24.94 39.14,-47.62 59.46,-67.94 42.94,-42.94 89.15,-76.79 138.59,-101.51 26.11,-13.06 51.89,-22.77 77.3,-29.12zm-336.67 468.94c107.87,-56.85 199.79,-115.3 276.3,-176.41 76.52,-61.11 151.44,-132.31 225.3,-214.67 -25.5,-14.35 -53.67,-21.25 -85.02,-21.25 -42.51,0 -85.02,10.63 -127.53,31.88 -42.51,21.25 -82.89,51.01 -121.15,89.27 -38.26,38.26 -72.27,82.36 -102.02,131.78 -29.76,49.42 -51.54,102.55 -65.89,159.41z"/>
    <path id="1" class="fil2" d="M7772.59 6257.73c-42.51,0 -85.02,10.63 -127.53,31.88 -42.51,21.25 -82.89,51.01 -121.15,89.27 -38.26,38.26 -72.27,82.36 -102.02,131.78 -29.76,49.42 -51.54,102.55 -65.89,159.41 107.87,-56.85 199.79,-115.3 276.3,-176.41 76.52,-61.11 151.44,-132.31 225.3,-214.67 -25.5,-14.35 -53.67,-21.25 -85.02,-21.25z"/>
   </g>
   <g>
    <path class="fil0" d="M7554.35 5009.71c-40.54,72.38 -78.31,137.07 -113.28,193.96 -35.25,57.35 -68.85,108.7 -100.78,153.96 -0.6,0.86 -1.22,1.69 -1.86,2.51 -33.31,46.91 -62.33,87.45 -86.4,120.62 -23.96,33.02 -50.58,69.07 -80.52,108.99l0.09 0.06c-38.18,51.93 -80.35,111.01 -126.48,177.23 -0.8,1.16 -1.64,2.28 -2.5,3.36 -17.49,25.33 -37.88,55.12 -64.98,95.22 -25.14,37.2 -48.14,71.68 -67.5,101.51 -17.48,26.93 -38.57,59.8 -66.37,103.63 -23.93,37.73 -45.66,72.48 -64.37,103.1 -0.04,0.06 -0.08,0.13 -0.12,0.19l0.12 0.07c-20.57,33.42 -39.39,65.18 -56.57,95.25 -14.82,25.94 -28.29,50.23 -40.5,72.92 -1.14,7.85 -3.64,15.25 -7.26,21.96 -18.9,38.96 -36.1,77.79 -51.72,116.4 -15.91,39.34 -30.41,79.02 -43.6,118.84 -13.22,40.18 -24.52,81.39 -34.04,123.6 -2.31,10.25 -4.54,20.66 -6.7,31.22 5.78,-1.93 11.52,-3.87 17.21,-5.81 40.04,-13.66 76.81,-27.08 110.05,-40.28 0.18,-0.07 0.36,-0.14 0.54,-0.21l-0.02 -0.05c35.04,-13.65 69.13,-28.2 102.17,-43.68 31.89,-14.94 64.39,-31.63 97.53,-50.19 0.62,-0.35 1.24,-0.68 1.86,-1 33.16,-18.34 65.19,-37.32 95.85,-56.9 32.13,-20.5 64.04,-42.25 95.57,-65.2 0.1,-0.07 0.2,-0.14 0.3,-0.21l-0.04 -0.05c32.19,-23.17 65.08,-48.6 98.54,-76.2 33.94,-28 67.79,-57.57 101.37,-88.63 26.89,-24.88 68.87,-23.25 93.75,3.65 2.91,3.15 5.45,6.5 7.64,10l0.17 -0.11 63.76 102.02c13.89,22.33 12.94,49.71 -0.16,70.59 -22.48,41.63 -47.45,80.22 -74.83,115.75 -28.46,36.93 -59.92,70.96 -94.27,102.08 -0.24,0.22 -0.48,0.43 -0.72,0.64 -33.26,30.36 -67.17,58.19 -101.65,83.56 -34.93,25.7 -71.79,49.9 -110.47,72.66 -0.89,0.52 -1.78,1.01 -2.68,1.49 -37.87,22.45 -75.15,42.66 -111.94,60.76 -39.03,19.2 -78.85,36.91 -119.52,53.22 -33.83,13.58 -71.98,28.55 -115.42,45.22 -38.7,14.86 -75.45,28.6 -110.1,41.11 -4.23,1.52 -8.51,2.57 -12.79,3.2l0.03 0.19c-8.95,1.32 -17.12,2.3 -24.49,2.91 -8.45,0.7 -16.26,1.06 -23.41,1.06l-46.76 0c-51.97,0 -97,-6.39 -135.07,-19.07 -43.5,-14.5 -77.48,-37.23 -101.92,-68.08 -21.41,-27.03 -38.12,-59.88 -50.11,-98.53 -10.59,-34.13 -17.63,-72.87 -21.1,-116.2 -1.46,-5.88 -2.61,-12.07 -3.42,-18.57 -1.03,-8.21 -1.59,-17.12 -1.59,-26.76 0,-12.14 1.36,-24.02 4.22,-35.46 0.02,-0.06 0.03,-0.13 0.05,-0.19 0.15,-5.94 1.07,-11.69 2.67,-17.15 20,-84.79 44.46,-169.02 73.48,-252.82 29.14,-84.13 62.55,-166.41 100.37,-246.95 37.78,-80.44 77.93,-158.89 120.57,-235.3 42.62,-76.37 88.26,-151.62 137.04,-225.74 49.67,-75.47 99.23,-147.31 148.75,-215.48 50.65,-69.72 103.54,-139 158.83,-207.91 0.93,-1.16 1.9,-2.27 2.89,-3.35 55.65,-69.61 108.69,-135.12 159.17,-196.56 56.33,-68.58 109.74,-132.73 160.26,-192.49l-0.04 -0.03c7.44,-9.56 15.11,-17.93 22.83,-25.1 9.64,-8.95 19.68,-15.93 29.84,-21.02 1.96,-0.98 4.84,-2.55 9.11,-5.02 2.74,-1.59 5.6,-3.38 8.59,-5.43 2.17,-1.48 4.41,-2.81 6.68,-4.01 7.37,-6.37 16.14,-11.14 25.79,-13.81l62.62 -23.48c22.85,-8.51 47.42,-3.63 65.08,10.7l0.02 -0.03 68.02 55.26c12.79,10.4 20.7,24.58 23.44,39.62l7.97 35.87c3.66,16.57 0.78,33.07 -6.92,46.79l0.15 0.08zm-58.07 -32.55c-79.17,141.34 -149.31,255.58 -210.42,342.19 -61.11,86.08 -116.9,163.13 -167.91,231.14 -39.85,54.2 -82.36,113.71 -127.52,178.54 -45.17,65.36 -90.86,132.31 -136.03,201.92 -45.17,69.61 -89.27,138.68 -131.78,208.29 -42.51,69.07 -79.17,133.9 -110.52,193.41l4.25 0c-39.85,81.83 -72.8,164.19 -99.89,246.02 -27.1,82.36 -47.29,173.22 -61.64,272.06 85.02,-25.5 163.66,-52.07 235.92,-80.76 72.26,-28.17 141.87,-60.57 208.29,-97.77 66.42,-36.66 133.37,-79.17 199.79,-127.52 66.42,-47.82 135.5,-104.68 206.17,-170.04l63.76 102.02c-42.51,79.7 -95.11,147.72 -157.28,204.04 -62.17,56.85 -129.65,106.27 -201.91,148.78 -72.27,43.04 -147.19,79.7 -225.3,111.05 -78.11,31.35 -152.5,60.04 -223.17,85.55 -14.35,2.13 -27.1,3.19 -38.26,3.19 -11.16,0 -27.1,0 -46.76,0 -90.86,0 -152.5,-20.72 -184.91,-61.64 -32.41,-40.91 -51.54,-102.55 -57.39,-184.91 -2.65,-8.5 -4.25,-19.66 -4.25,-34.01 0,-13.81 2.66,-25.5 8.5,-34.01l-4.25 0c39.85,-170.03 96.18,-333.16 170.04,-490.44 73.86,-157.28 157.81,-308.19 252.93,-452.72 95.11,-144.53 196.07,-283.74 303.94,-418.18 107.87,-134.96 215.2,-265.68 323.06,-393.2 11.16,-14.35 21.26,-23.38 29.76,-27.63 8.5,-4.25 17,-9.03 25.51,-14.88l21.25 -8.5 -8.5 0 68.01 -25.5 68.02 55.26 8.5 38.26z"/>
    <path id="1" class="fil1" d="M7496.28 4977.16c-79.17,141.34 -149.31,255.58 -210.42,342.19 -61.11,86.08 -116.9,163.13 -167.91,231.14 -39.85,54.2 -82.36,113.71 -127.52,178.54 -45.17,65.36 -90.86,132.31 -136.03,201.92 -45.17,69.61 -89.27,138.68 -131.78,208.29 -42.51,69.07 -79.17,133.9 -110.52,193.41l4.25 0c-39.85,81.83 -72.8,164.19 -99.89,246.02 -27.1,82.36 -47.29,173.22 -61.64,272.06 85.02,-25.5 163.66,-52.07 235.92,-80.76 72.26,-28.17 141.87,-60.57 208.29,-97.77 66.42,-36.66 133.37,-79.17 199.79,-127.52 66.42,-47.82 135.5,-104.68 206.17,-170.04l63.76 102.02c-42.51,79.7 -95.11,147.72 -157.28,204.04 -62.17,56.85 -129.65,106.27 -201.91,148.78 -72.27,43.04 -147.19,79.7 -225.3,111.05 -78.11,31.35 -152.5,60.04 -223.17,85.55 -14.35,2.13 -27.1,3.19 -38.26,3.19 -11.16,0 -27.1,0 -46.76,0 -90.86,0 -152.5,-20.72 -184.91,-61.64 -32.41,-40.91 -51.54,-102.55 -57.39,-184.91 -2.65,-8.5 -4.25,-19.66 -4.25,-34.01 0,-13.81 2.66,-25.5 8.5,-34.01l-4.25 0c39.85,-170.03 96.18,-333.16 170.04,-490.44 73.86,-157.28 157.81,-308.19 252.93,-452.72 95.11,-144.53 196.07,-283.74 303.94,-418.18 107.87,-134.96 215.2,-265.68 323.06,-393.2 11.16,-14.35 21.26,-23.38 29.76,-27.63 8.5,-4.25 17,-9.03 25.51,-14.88l21.25 -8.5 -8.5 0 68.01 -25.5 68.02 55.26 8.5 38.26z"/>
   </g>
   <g>
    <path class="fil0" d="M5786.13 6150.54c33.9,-11.27 68.34,-16.86 103.33,-16.86 8.74,0 19.64,1.03 32.65,3.2 10.99,1.83 22.64,4.29 34.76,7.39l-0.02 0.09c14.87,3.77 28.52,12.67 38.04,26.21 21.14,30.06 13.91,71.57 -16.15,92.7 -21.93,15.42 -46.25,31.98 -73.62,50 -27.27,17.95 -51.65,33.46 -72.69,46.13 -24.6,14.82 -53.17,29.45 -85.66,43.89 -30.06,13.36 -61.97,25.78 -95.73,37.24 -15.51,6.33 -33.4,6.85 -50.15,0.07 -34.08,-13.81 -50.52,-52.63 -36.72,-86.72 11.7,-28.77 27.87,-55.72 48.35,-80.99 1.02,-1.43 2.1,-2.83 3.24,-4.2 20.75,-24.87 45.96,-47.86 75.46,-69.11 30.11,-21.69 61.75,-38.02 94.88,-49.03zm-160.22 228.34c68.02,-22.85 125.4,-48.35 172.16,-76.52 46.76,-28.16 94.05,-59.51 142.4,-93.52 -22.85,-5.85 -39.85,-8.5 -51.01,-8.5 -56.86,0 -109.99,17.53 -159.41,53.13 -49.41,35.6 -84.48,77.05 -104.15,125.4z"/>
    <path id="1" class="fil2" d="M5889.46 6200.34c-56.86,0 -109.99,17.53 -159.41,53.13 -49.41,35.6 -84.48,77.05 -104.15,125.4 68.02,-22.85 125.4,-48.35 172.16,-76.52 46.76,-28.16 94.05,-59.51 142.4,-93.52 -22.85,-5.85 -39.85,-8.5 -51.01,-8.5z"/>
   </g>
   <g>
    <path class="fil0" d="M3401.89 6755.48c68.59,-158.76 144.02,-315.57 226.24,-470.48 82.52,-155.46 172.13,-309.44 268.82,-462 96.11,-151.64 198.74,-302.81 307.8,-453.44 108.07,-149.26 223.15,-298.67 345.14,-448.14 22.8,-28.04 63.74,-32.65 92.18,-10.67 26.37,19.02 48.67,36.63 66.82,52.82l0.13 -0.15c20.85,18.61 36.72,35.92 47.54,51.95 10.64,15.78 18.93,31.57 24.76,47.4 6.68,18.11 10.07,35.98 10.07,53.6 0,18.13 -2.24,35.41 -6.6,51.79 -0.02,0.08 -0.05,0.16 -0.07,0.24l0.07 0.02c-4.72,17.67 -11.87,33.74 -21.34,48.17 -6.31,9.61 -13.78,19.65 -22.36,30.11 -7.87,9.6 -15.22,17.86 -22.09,24.91l-144.67 198.39c-0.85,1.16 -1.72,2.28 -2.63,3.37l0.02 0.02 -40.13 48.16c-25.81,37.36 -51.61,74.08 -77.39,110.17 -27.74,38.83 -55,76.41 -81.79,112.72 -27.3,37.02 -53,74.02 -77,110.87 -24.41,37.48 -47.69,75.63 -69.74,114.28 -1.61,2.83 -3.39,5.49 -5.32,7.98 -17.56,25.24 -38.24,57.51 -62.01,96.8 -24.41,40.33 -50.69,85.92 -78.8,136.74 -0.92,1.67 -1.9,3.29 -2.94,4.85 -10.22,18.52 -20.9,38.09 -32,58.67 22.44,-16.1 47.6,-33.7 74.87,-52.46 31.39,-21.6 63.11,-41.57 95.11,-59.9 33.28,-19.07 67.7,-37.06 103.17,-53.96 34.35,-16.37 71.79,-32.08 112.27,-47.12 39.82,-14.79 80.36,-28.02 121.58,-39.69 85.69,-24.24 178.23,-37.78 277.57,-40.6 36.67,-1 67.22,27.91 68.23,64.58 0.37,13.66 -3.41,26.47 -10.19,37.22l0.03 0.02c-6.65,10.59 -12.26,20.13 -16.85,28.71 -4.71,8.81 -8.77,17.24 -12.21,25.42 -0.31,0.75 -0.65,1.48 -0.98,2.21 -4.24,9.95 -12.31,29.76 -19.24,46.76l-0.51 1.26c-1.31,3.23 -2.84,6.3 -4.57,9.2 -2.63,5.4 -4.79,10.09 -6.38,13.98 -0.03,0.07 -0.06,0.15 -0.09,0.22l0.09 0.04c-1.25,3.06 -2.24,6.01 -2.93,8.9 -1.1,4.65 -2.67,9.07 -4.64,13.22 -5.15,13.57 -10.82,29.42 -16.85,46.89 -6.33,18.38 -11.54,34.3 -15.95,48.45 -4.62,14.83 -8.57,29.64 -11.98,44.4 -3.43,14.86 -6.51,30.57 -9.31,46.9 -0.53,3.11 -1.28,6.14 -2.21,9.07 -10.09,35.87 -17.23,68.14 -20.91,96.19 -0.08,0.64 -0.18,1.28 -0.28,1.92 -1.43,11.1 -2.74,21.19 -3.89,29.89 31.35,-1.53 61.67,-4.37 90.93,-8.52 46.99,-6.67 91.71,-16.54 134.15,-29.53 42.48,-13.02 87.31,-27.58 134.52,-43.73 -2.64,-3.63 -4.78,-7.29 -6.44,-10.96 -36.07,-21 -34.01,-35.81 5.74,-45.19 25.59,-30.89 99.87,-46.63 218.36,-11.33 2.8,0.52 5.56,1.21 8.26,2.08 1.22,0.15 2.51,0.28 3.84,0.4 0.09,0.01 0.17,0.02 0.26,0.02l0 -0.02c2.83,0.24 6.07,0.41 9.68,0.41 4.41,0 9.3,0.13 14.85,0.42 21.8,-23.76 58.28,-28.71 85.89,-10.21 8.82,5.91 15.78,13.57 20.7,22.21l0.13 -0.07 34.01 59.51c16.3,28.5 9.22,63.98 -15.19,84.26 -57.27,51.3 -117.72,96.96 -181.43,136.97 -64.36,40.43 -131.69,74.8 -202.03,103.1 -70.85,28.51 -142.47,49.93 -214.96,64.16 -73.09,14.35 -147.09,21.56 -222.11,21.56 -43.3,0 -83.24,-7.03 -119.72,-21.17 -37.46,-14.52 -70.24,-36.25 -98.23,-65.29 -27.75,-28.8 -48.56,-62.24 -62.41,-100.48 -13.4,-37.02 -20.11,-77.65 -20.11,-122.02 0,-26.22 1.86,-53.08 5.56,-80.65 2.81,-20.93 6.81,-41.95 12,-63.1 -16.76,12.12 -33.04,24.68 -48.83,37.64l0.11 0.13c-36.45,30.23 -67.85,56.5 -95.19,79.58 -33.19,28.03 -63.33,53.69 -91.07,77.45 -0.52,0.44 -1.05,0.88 -1.58,1.31 -41.7,37.33 -82.93,72.58 -123.66,105.74 -42.89,34.91 -85.34,67.76 -127.34,98.53 -0.1,0.07 -0.2,0.14 -0.3,0.21l0.04 0.05c-44.15,32.06 -91.74,61.54 -142.76,88.37 -50.53,26.57 -103.97,50.31 -160.31,71.12 -27.92,10.23 -58.27,0.6 -75.56,-21.72l-89.84 -98c-10.33,-11.29 -16.02,-25.19 -17.17,-39.35l-0.28 0.02 -4.25 -51.01c-0.99,-12.03 1.28,-23.57 6.07,-33.76zm1900.07 -282.79l0.88 -0.3c-1.07,0 -1.37,0.09 -0.88,0.3zm0 0c0.72,0.31 3.13,0.88 7.26,1.83 6.91,1.06 16.47,2.13 27.63,2.13 11.16,0 21.26,0.53 29.76,2.13 8.5,1.06 14.35,2.13 17,2.13l17 -25.5 34.01 59.51c-110.52,99.36 -232.2,175.88 -365.57,229.54 -133.37,53.67 -270.46,80.77 -412.33,80.77 -70.67,0 -127.53,-21.79 -170.04,-65.89 -42.51,-44.1 -63.76,-102.55 -63.76,-176.41 0,-48.35 6.38,-95.65 19.13,-142.4 12.75,-46.76 30.29,-95.65 53.14,-146.66l0 -4.25c-76.52,36.66 -147.19,82.36 -212.54,136.03 -65.36,54.2 -127.53,106.8 -187.04,157.81 -82.36,73.86 -165.25,141.34 -248.67,202.45 -83.43,60.57 -179.07,111.05 -286.93,150.9l-93.52 -102.02 -4.25 -51.01c136.02,-315.09 299.68,-623.28 490.97,-925.09 191.29,-301.81 407.55,-600.43 648.25,-895.33 51.01,36.67 84.49,66.42 99.9,89.27 15.41,22.85 23.38,44.1 23.38,63.76 0,25.5 -5.84,46.76 -17,63.76 -11.16,17 -23.91,32.41 -38.26,46.76l-148.78 204.04 -42.51 51.01c-51.01,73.86 -104.15,148.25 -159.41,223.17 -55.26,74.92 -105.74,152.5 -150.91,231.67 -39.85,56.85 -88.74,137.62 -146.65,242.3 -57.92,104.68 -115.3,214.14 -172.16,327.31l25.5 -17 63.76 -51.01 12.75 -12.75 0 4.25 42.51 -34c51.01,-39.85 105.74,-79.17 163.66,-119.02 57.92,-39.85 121.15,-75.98 189.16,-108.4 68.02,-32.41 142.41,-60.04 223.17,-82.89 80.76,-22.85 167.91,-35.6 261.43,-38.26 -14.35,22.85 -25.5,43.57 -34.01,63.76 -8.5,19.66 -15.41,36.66 -21.25,51.01 -8.5,17 -14.35,30.82 -17,41.98 -14.35,37.2 -26.04,71.74 -36.13,104.15 -10.09,32.41 -17.54,65.89 -23.38,99.9 -11.16,39.32 -19.13,75.45 -23.38,107.87 -4.25,32.94 -9.03,68.54 -14.88,108.39l21.26 0c107.87,0 207.76,-14.35 299.69,-42.51 91.93,-28.16 182.26,-58.98 269.93,-92.46l50.13 -16.71z"/>
    <path id="1" class="fil1" d="M3462.22 6783.77c136.02,-315.09 299.68,-623.28 490.97,-925.09 191.29,-301.81 407.55,-600.43 648.25,-895.33 51.01,36.67 84.49,66.42 99.9,89.27 15.41,22.85 23.38,44.1 23.38,63.76 0,25.5 -5.84,46.76 -17,63.76 -11.16,17 -23.91,32.41 -38.26,46.76l-148.78 204.04 -42.51 51.01c-51.01,73.86 -104.15,148.25 -159.41,223.17 -55.26,74.92 -105.74,152.5 -150.91,231.67 -39.85,56.85 -88.74,137.62 -146.65,242.3 -57.92,104.68 -115.3,214.14 -172.16,327.31l25.5 -17 63.76 -51.01 12.75 -12.75 0 4.25 42.51 -34c51.01,-39.85 105.74,-79.17 163.66,-119.02 57.92,-39.85 121.15,-75.98 189.16,-108.4 68.02,-32.41 142.41,-60.04 223.17,-82.89 80.76,-22.85 167.91,-35.6 261.43,-38.26 -14.35,22.85 -25.5,43.57 -34.01,63.76 -8.5,19.66 -15.41,36.66 -21.25,51.01 -8.5,17 -14.35,30.82 -17,41.98 -14.35,37.2 -26.04,71.74 -36.13,104.15 -10.09,32.41 -17.54,65.89 -23.38,99.9 -11.16,39.32 -19.13,75.45 -23.38,107.87 -4.25,32.94 -9.03,68.54 -14.88,108.39l21.26 0c107.87,0 207.76,-14.35 299.69,-42.51 91.93,-28.16 182.26,-58.98 269.93,-92.46l51.01 -17c-2.66,0 -0.53,0.53 6.37,2.13 6.91,1.06 16.47,2.13 27.63,2.13 11.16,0 21.26,0.53 29.76,2.13 8.5,1.06 14.35,2.13 17,2.13l17 -25.5 34.01 59.51c-110.52,99.36 -232.2,175.88 -365.57,229.54 -133.37,53.67 -270.46,80.77 -412.33,80.77 -70.67,0 -127.53,-21.79 -170.04,-65.89 -42.51,-44.1 -63.76,-102.55 -63.76,-176.41 0,-48.35 6.38,-95.65 19.13,-142.4 12.75,-46.76 30.29,-95.65 53.14,-146.66l0 -4.25c-76.52,36.66 -147.19,82.36 -212.54,136.03 -65.36,54.2 -127.53,106.8 -187.04,157.81 -82.36,73.86 -165.25,141.34 -248.67,202.45 -83.43,60.57 -179.07,111.05 -286.93,150.9l-93.52 -102.02 -4.25 -51.01z"/>
   </g>
   <g>
    <path class="fil0" d="M1071.92 5114c35.96,-26.72 71.37,-55.7 106.17,-87.02 34.43,-30.98 67.5,-63.65 99.12,-98.06 29.61,-32.22 55.41,-67.91 77.37,-107.06 10.51,-18.73 20.11,-38.19 28.83,-58.36 -1.59,-0.15 -3.21,-0.3 -4.85,-0.43 -6.8,-0.56 -13.61,-0.87 -20.5,-0.87 -85.44,0 -180.78,14.1 -287.01,42.29 -54.77,14.54 -110.11,31.55 -166.15,51.04 -57.26,19.91 -115.07,42.24 -173.57,66.98 -57.98,24.52 -116.53,51.82 -175.56,81.73 -58.93,29.86 -116.76,61.54 -173.5,94.91l0.07 0.11c-58.43,34.63 -114.59,69.76 -168.32,105.34 -52.2,34.58 -103.24,70.43 -153,107.55 -1.37,1.02 -2.76,1.98 -4.17,2.87 -46.99,35.44 -91.81,71.57 -134.46,108.5 -43.18,37.39 -83.72,75.37 -121.63,114.05 -37.24,37.75 -69.22,74.42 -95.89,110 -13.57,18.09 -25.86,36.01 -36.87,53.77 1.8,0.96 3.62,1.91 5.46,2.83 18.35,9.17 39.22,16.39 62.61,21.63 26.03,5.83 51.92,10.67 77.75,14.43 24.18,3.52 47.24,5.94 69.2,7.2l0 -0.07 46.76 0c11.15,0 21.93,0.47 32.24,1.33 7.65,0.64 15.57,1.65 23.66,2.99 4.57,0.1 10.72,0.33 18.81,0.74 6.82,0.34 15.02,0.93 24.8,1.85 6.75,0.63 13.89,1.09 21.26,1.4 0.19,0.01 0.37,0.02 0.55,0.03 3.65,0.12 10.3,0.17 18.96,0.17 5.43,0 10.7,0.65 15.74,1.87 5.24,0.74 10.27,1.34 15.02,1.77 4.41,0.39 10.37,0.61 18.12,0.61l44.63 0c5.25,0 11.08,0.21 17.7,0.72 6.12,0.47 12.76,1.34 20.04,2.7 1.08,0.2 3.07,0.41 5.72,0.62 0.22,0.02 0.43,0.04 0.65,0.06 1.8,0.1 4.15,0.15 6.9,0.15l51.01 0c2.53,0 5.03,0.15 7.48,0.42 49.87,1.38 98.12,3.31 145.09,5.69 53.38,2.7 103.62,5.74 151.54,9.03 52.29,3.6 102.02,9.51 149.09,17.6 47.99,8.25 93.79,18.89 137.29,31.76 44.68,13.23 85.54,29.92 122.45,49.98 37.45,20.35 70.79,44.36 99.91,71.91 32.11,30.39 56.19,66.22 72.13,107.58 15.54,40.3 23.35,84.96 23.35,134.01 0,22.42 -2.65,46.38 -7.94,71.93 -5.04,24.31 -12.37,49.22 -21.99,74.78 -0.39,1.05 -0.81,2.08 -1.26,3.09 -9.13,24.31 -18.8,47.71 -29,70.15 -10.63,23.38 -23.02,48.33 -37.15,74.84 -1.82,3.41 -3.89,6.59 -6.19,9.55 -40.18,53.49 -84.07,105.11 -131.71,154.66 -47.91,49.85 -99.42,97.67 -154.56,143.3 -54.94,45.47 -112.16,88.22 -171.78,128.25 -59.21,39.75 -119.8,76.04 -181.87,108.85 -62.63,33.11 -125.74,62.63 -189.37,88.48 -64.2,26.08 -129.3,48.65 -195.34,67.64 -66.5,19.12 -131.58,33.55 -195.3,43.2 -64.33,9.75 -127.14,14.66 -188.5,14.66 -38.71,0 -76.33,-2.03 -113.04,-6.17 -36.79,-4.14 -71.77,-10.38 -105.03,-18.76 -33.23,-8.38 -64.39,-18.51 -93.61,-30.3 -29.95,-12.08 -57.2,-25.61 -81.9,-40.48 -25.1,-15.12 -48.02,-32.07 -68.74,-50.85 -21.23,-19.24 -39.19,-39.63 -53.85,-61.13 -0.54,-0.78 -1.05,-1.58 -1.54,-2.37 -14.61,-21.58 -25.84,-43.96 -33.58,-66.96 -8.45,-25.1 -12.72,-50.33 -12.72,-75.5 0,-41.05 6.44,-81.08 19.33,-120.13 12.65,-38.34 31.46,-75.42 56.42,-111.3 23.63,-33.97 50.6,-66.11 80.88,-96.39 29.84,-29.84 63.35,-58.27 100.52,-85.28 35.8,-26.01 74.04,-51.14 114.7,-75.24 39.24,-23.25 80.91,-45.56 125,-66.78 41.39,-19.92 84.35,-39.52 129,-58.83 45.76,-19.79 88.11,-37.11 127.01,-51.91 41.37,-15.74 82.38,-30.3 123.21,-43.68 39.71,-13.01 78.78,-24.65 117.36,-34.92l20.56 -5.47c64.5,-17.18 117.24,-31.23 159.02,-41.55 0.06,-0.02 0.12,-0.03 0.18,-0.04l21.22 -6.46 -44.98 -3.85c-43.89,-3.75 -138.68,-12.47 -235.73,-21.39l-70.85 -6.5c-0.09,-0.01 -0.17,-0.02 -0.26,-0.03l-0 0.03c-58.04,-5.59 -110.06,-11.16 -156.59,-16.67 -48.3,-5.72 -99.07,-12.32 -151.95,-19.67 -47.23,-5.05 -89.71,-15.74 -127.44,-32.17 -40.07,-17.45 -74.51,-41.21 -103.31,-71.37 -0.06,-0.07 -0.13,-0.14 -0.19,-0.2 -28.66,-29.79 -50.3,-63.89 -64.82,-102.36 -14.3,-37.88 -21.5,-79.17 -21.5,-123.93 0,-47.79 5.07,-91.83 15.3,-132.11 10.61,-41.78 26.93,-79.51 49.04,-113.17 0.04,-0.06 0.08,-0.12 0.12,-0.18l-0.12 -0.08c17.78,-26.81 36.38,-53.93 56.03,-81.46 18.8,-26.33 38.63,-52.97 59.74,-79.99 0.85,-1.08 1.72,-2.13 2.61,-3.14l31.91 -39.89c2.32,-2.91 4.84,-5.56 7.52,-7.97 81.81,-77.34 168.63,-149.83 260.56,-217.54 93.36,-68.76 192.29,-133.12 296.9,-193.13 101.52,-58.24 203.1,-112.84 304.73,-163.89 100.46,-50.47 197.45,-95.58 291.04,-135.46 1.19,-0.51 2.39,-0.97 3.6,-1.41 45.74,-19.68 92.78,-37.94 141.17,-54.69 50.76,-17.57 101.89,-33.25 153.4,-46.93 53.25,-14.15 107.8,-24.77 163.68,-31.92 56.47,-7.23 112.39,-10.81 167.81,-10.81 62,0 117.85,5.18 167.5,15.44 52.17,10.78 96.89,27.21 134.15,49.19 42.19,24.88 74.09,58.56 95.59,101.2 20.46,40.57 30.74,87.88 30.74,142.06 0,73.13 -19.78,146.48 -59.35,218.81 -18.71,34.2 -40,67.63 -63.85,100.2 -23.78,32.47 -50.35,64.54 -79.68,96.13 -28.2,30.37 -58.17,60.87 -89.83,91.43 -30.74,29.67 -63.4,59.58 -97.9,89.67 -35.7,31.14 -68.09,58.98 -97.25,83.65 -29.61,25.06 -62.41,52.32 -97.72,81.3 -1.73,1.43 -3.52,2.74 -5.34,3.96l0.14 0.2 -140.28 93.52c-23.26,15.5 -52.72,14.46 -74.5,-0.34l-127.6 -74.09c-31.78,-18.41 -42.63,-59.1 -24.22,-90.89 2.51,-4.33 5.44,-8.27 8.69,-11.81 20.6,-24.87 41.17,-48.09 61.79,-69.77 21.27,-22.35 43.87,-44.34 67.94,-66.08 24.33,-21.99 47.11,-42.11 68.52,-60.56 22.35,-19.25 46.32,-39.41 71.98,-60.55 0.86,-0.71 1.74,-1.39 2.63,-2.05l-0.02 -0.04zm39.58 53.39c76.52,-56.86 148.25,-121.15 214.67,-193.41 66.42,-72.27 115.31,-159.41 146.66,-261.43 -22.85,-5.85 -43.04,-10.09 -61.64,-12.75 -18.6,-2.66 -36.13,-4.25 -53.14,-4.25 -90.86,0 -191.82,14.88 -303.93,44.63 -112.12,29.76 -227.95,70.14 -348.57,121.15 -120.62,51.01 -239.64,111.59 -357.07,180.66 -117.43,69.61 -226.89,141.87 -327.31,216.8 -100.43,75.45 -189.7,152.5 -267.81,232.2 -78.11,79.17 -135.5,155.69 -172.16,229.55 36.66,34 83.42,57.39 140.28,70.14 56.85,12.75 110.52,20.72 161.53,23.38 11.16,0 27.1,0 46.76,0 19.66,0 36.66,1.59 51.01,4.25 11.16,0 25.51,0.53 42.51,2.13 17,1.59 32.41,2.13 46.76,2.13 17,2.66 33.48,4.25 48.89,4.25 15.41,0 30.29,0 44.63,0 8.5,0 17,0.53 25.5,2.12 8.5,1.59 17,2.13 25.51,2.13l51.01 0c99.37,2.66 199.26,7.97 299.69,14.88 100.43,6.91 191.29,22.85 272.06,46.76 80.77,23.91 146.12,59.51 195.54,106.27 49.42,46.76 74.39,111.06 74.39,193.41 0,37.2 -8.5,78.11 -25.5,123.28 -17,45.7 -38.26,92.46 -63.76,140.28 -76.52,102.02 -168.44,198.19 -276.31,287.46 -107.86,89.27 -221.57,165.78 -342.19,229.55 -120.62,63.76 -244.42,114.24 -371.95,150.91 -127.52,36.67 -249.2,55.26 -365.57,55.26 -73.86,0 -140.81,-7.44 -201.92,-22.85 -61.11,-15.41 -113.18,-36.67 -157.28,-63.23 -44.11,-26.57 -78.11,-57.39 -102.02,-92.46 -23.91,-34.54 -36.13,-70.67 -36.13,-107.33 0,-68.01 21.25,-132.31 63.76,-193.41 42.51,-61.11 97.77,-116.37 165.78,-165.78 68.02,-49.41 144.53,-95.11 229.55,-136.03 85.02,-40.91 168.44,-77.04 250.8,-108.39 82.36,-31.35 159.94,-56.86 233.8,-76.52 73.86,-19.66 133.37,-35.6 178.54,-46.76l97.77 -29.76 42.51 131.78c-22.85,14.35 -44.63,26.04 -65.89,36.13 -21.26,10.09 -47.29,20.72 -78.64,31.88 -144.53,48.35 -287.46,106.27 -429.33,174.28 -141.87,68.01 -266.21,155.69 -374.07,263.55l0 -4.25 -63.76 106.27 -4.25 0 -17 29.76c2.66,2.65 5.85,4.25 8.5,4.25l-4.25 0c31.35,11.16 56.85,19.13 76.52,23.38 19.66,4.25 45.17,6.37 76.52,6.37 246.55,0 473.44,-46.23 680.13,-138.15 206.7,-92.45 395.33,-227.95 565.37,-406.48 25.5,-25.51 49.41,-56.33 72.26,-91.93 22.85,-35.07 34.01,-68.55 34.01,-99.9 0,-31.35 -10.63,-55.79 -31.88,-74.39 -21.26,-18.59 -46.76,-32.41 -76.52,-42.51 -29.76,-10.09 -61.64,-17 -95.65,-21.25 -34,-4.25 -65.35,-7.97 -93.52,-10.63 -5.84,0 -10.09,-0.53 -12.75,-2.12 -2.65,-1.59 -8.5,-2.13 -17,-2.13l-25.5 0 -297.56 -25.51c-99.36,-8.5 -201.38,-18.06 -306.06,-27.63 -104.68,-10.09 -206.7,-22.31 -306.06,-36.13 -82.36,-8.5 -146.12,-36.13 -191.29,-83.43 -45.17,-46.76 -68.02,-106.8 -68.02,-180.66 0,-85.02 17.54,-154.62 53.14,-208.82 35.6,-53.67 72.8,-106.27 112.65,-157.28l34.01 -42.51c158.87,-150.37 340.6,-284.28 546.23,-402.24 205.64,-117.96 401.71,-216.26 588.74,-295.96 90.86,-39.32 187.04,-72.8 289.06,-99.89 102.02,-27.1 206.7,-40.38 314.56,-40.38 116.37,0 205.63,18.59 267.8,55.26 62.17,36.66 93.52,98.3 93.52,185.97 0,62.17 -17,124.87 -51.01,187.04 -34.01,62.17 -78.64,123.28 -133.9,182.79 -55.26,59.51 -116.37,118.49 -182.79,176.41 -66.42,57.92 -131.24,112.65 -193.41,163.66l-140.28 93.52 -131.78 -76.52c39.85,-48.35 81.3,-91.93 125.4,-131.78 44.1,-39.85 89.8,-79.17 138.15,-119.02zm-666.81 940.93c1.2,2.56 2.24,5.22 3.13,7.97l0.06 -0.02 42.51 131.78c9.52,29.65 -2.89,61.07 -28.2,76.77 -12.09,7.58 -24.39,14.74 -36.84,21.53 -13.08,7.13 -24.9,13.15 -35.73,18.3 -12.55,5.96 -25.68,11.74 -39.38,17.29 -13.26,5.37 -28.4,11.11 -45.51,17.2 -1.42,0.5 -2.85,0.95 -4.28,1.35 -68.58,23.02 -138.06,48.8 -208.52,77.38 -72.2,29.3 -142.21,60.18 -210.02,92.69 -67.02,32.13 -130.38,69.24 -190.16,111.36 -58.76,41.41 -113.87,87.87 -165.43,139.43 -0.37,0.37 -0.74,0.73 -1.12,1.09l-28.5 47.51c5.2,0.82 11.06,1.51 17.58,2.05 10.67,0.89 23.07,1.33 37.17,1.33 119.63,0 233.57,-11.02 341.75,-32.99 108.41,-22.02 212.21,-55.1 311.3,-99.17 99.34,-44.43 194.33,-99.21 284.87,-164.3 90.63,-65.16 177.12,-140.94 259.4,-227.33 0.38,-0.4 0.77,-0.8 1.16,-1.19l-0.11 -0.11c11.76,-11.76 22.37,-23.74 31.92,-35.93 10.26,-13.09 20.76,-28.08 31.49,-44.8 0.58,-0.91 1.19,-1.8 1.81,-2.67 7.43,-11.75 12.97,-23.04 16.64,-33.82 3.26,-9.59 4.88,-18.77 4.88,-27.47 0,-6.59 -0.84,-11.8 -2.5,-15.67 -1.41,-3.29 -3.57,-6.19 -6.46,-8.72 -6.73,-5.88 -14.53,-11.24 -23.35,-16.11 -9.35,-5.16 -19.62,-9.59 -30.77,-13.38 -13.33,-4.52 -26.39,-8.17 -39.2,-11 -12.25,-2.7 -26.7,-5.07 -43.17,-7.13 -20.6,-2.57 -37.73,-4.69 -48.43,-5.91 -16,-1.83 -29.05,-3.28 -38.06,-4.2 -4.85,-0.06 -10.26,-0.5 -16.69,-1.5 -4.19,-0.65 -8.23,-1.56 -12.13,-2.74l-25.4 0c-2.67,0 -5.31,-0.16 -7.9,-0.47l-97.8 -8.38z"/>
    <path id="1" class="fil1" d="M1111.5 5167.39c76.52,-56.86 148.25,-121.15 214.67,-193.41 66.42,-72.27 115.31,-159.41 146.66,-261.43 -22.85,-5.85 -43.04,-10.09 -61.64,-12.75 -18.6,-2.66 -36.13,-4.25 -53.14,-4.25 -90.86,0 -191.82,14.88 -303.93,44.63 -112.12,29.76 -227.95,70.14 -348.57,121.15 -120.62,51.01 -239.64,111.59 -357.07,180.66 -117.43,69.61 -226.89,141.87 -327.31,216.8 -100.43,75.45 -189.7,152.5 -267.81,232.2 -78.11,79.17 -135.5,155.69 -172.16,229.55 36.66,34 83.42,57.39 140.28,70.14 56.85,12.75 110.52,20.72 161.53,23.38 11.16,0 27.1,0 46.76,0 19.66,0 36.66,1.59 51.01,4.25 11.16,0 25.51,0.53 42.51,2.13 17,1.59 32.41,2.13 46.76,2.13 17,2.66 33.48,4.25 48.89,4.25 15.41,0 30.29,0 44.63,0 8.5,0 17,0.53 25.5,2.12 8.5,1.59 17,2.13 25.51,2.13l51.01 0c99.37,2.66 199.26,7.97 299.69,14.88 100.43,6.91 191.29,22.85 272.06,46.76 80.77,23.91 146.12,59.51 195.54,106.27 49.42,46.76 74.39,111.06 74.39,193.41 0,37.2 -8.5,78.11 -25.5,123.28 -17,45.7 -38.26,92.46 -63.76,140.28 -76.52,102.02 -168.44,198.19 -276.31,287.46 -107.86,89.27 -221.57,165.78 -342.19,229.55 -120.62,63.76 -244.42,114.24 -371.95,150.91 -127.52,36.67 -249.2,55.26 -365.57,55.26 -73.86,0 -140.81,-7.44 -201.92,-22.85 -61.11,-15.41 -113.18,-36.67 -157.28,-63.23 -44.11,-26.57 -78.11,-57.39 -102.02,-92.46 -23.91,-34.54 -36.13,-70.67 -36.13,-107.33 0,-68.01 21.25,-132.31 63.76,-193.41 42.51,-61.11 97.77,-116.37 165.78,-165.78 68.02,-49.41 144.53,-95.11 229.55,-136.03 85.02,-40.91 168.44,-77.04 250.8,-108.39 82.36,-31.35 159.94,-56.86 233.8,-76.52 73.86,-19.66 133.37,-35.6 178.54,-46.76l97.77 -29.76 42.51 131.78c-22.85,14.35 -44.63,26.04 -65.89,36.13 -21.26,10.09 -47.29,20.72 -78.64,31.88 -144.53,48.35 -287.46,106.27 -429.33,174.28 -141.87,68.01 -266.21,155.69 -374.07,263.55l0 -4.25 -63.76 106.27 -4.25 0 -17 29.76c2.66,2.65 5.85,4.25 8.5,4.25l-4.25 0c31.35,11.16 56.85,19.13 76.52,23.38 19.66,4.25 45.17,6.37 76.52,6.37 246.55,0 473.44,-46.23 680.13,-138.15 206.7,-92.45 395.33,-227.95 565.37,-406.48 25.5,-25.51 49.41,-56.33 72.26,-91.93 22.85,-35.07 34.01,-68.55 34.01,-99.9 0,-31.35 -10.63,-55.79 -31.88,-74.39 -21.26,-18.59 -46.76,-32.41 -76.52,-42.51 -29.76,-10.09 -61.64,-17 -95.65,-21.25 -34,-4.25 -65.35,-7.97 -93.52,-10.63 -5.84,0 -10.09,-0.53 -12.75,-2.12 -2.65,-1.59 -8.5,-2.13 -17,-2.13l-25.5 0 -297.56 -25.51c-99.36,-8.5 -201.38,-18.06 -306.06,-27.63 -104.68,-10.09 -206.7,-22.31 -306.06,-36.13 -82.36,-8.5 -146.12,-36.13 -191.29,-83.43 -45.17,-46.76 -68.02,-106.8 -68.02,-180.66 0,-85.02 17.54,-154.62 53.14,-208.82 35.6,-53.67 72.8,-106.27 112.65,-157.28l34.01 -42.51c158.87,-150.37 340.6,-284.28 546.23,-402.24 205.64,-117.96 401.71,-216.26 588.74,-295.96 90.86,-39.32 187.04,-72.8 289.06,-99.89 102.02,-27.1 206.7,-40.38 314.56,-40.38 116.37,0 205.63,18.59 267.8,55.26 62.17,36.66 93.52,98.3 93.52,185.97 0,62.17 -17,124.87 -51.01,187.04 -34.01,62.17 -78.64,123.28 -133.9,182.79 -55.26,59.51 -116.37,118.49 -182.79,176.41 -66.42,57.92 -131.24,112.65 -193.41,163.66l-140.28 93.52 -131.78 -76.52c39.85,-48.35 81.3,-91.93 125.4,-131.78 44.1,-39.85 89.8,-79.17 138.15,-119.02z"/>
   </g>
  </g>
 </g>
</svg>
